# xmcd CD database file
# Generated: Die Dez 24 10:30:55 2002 by KSCD
# 
# Track frame offsets:
#       150
#       19373
#       36764
#       64780
#       79994
#       101429
#       118430
#       134490
#       147021
#       174276
#       189711
#       209057
#       229580
#       248903
#       264467
#       285215
#       295588
#       309849
#
# Disc length: 4522 seconds
#
# Revision: 2
# Processed by: cddbd v1.4PL0 Copyright (c) Steve Scherf et al.
# Submitted via: Kscd 1.3.3
#
DISCID=0611a812
DTITLE=eva - trance
DYEAR=1900
DGENRE=
TTITLE0=trance
TTITLE1=
TTITLE2=
TTITLE3=
TTITLE4=
TTITLE5=
TTITLE6=
TTITLE7=
TTITLE8=
TTITLE9=
TTITLE10=
TTITLE11=
TTITLE12=
TTITLE13=
TTITLE14=
TTITLE15=
TTITLE16=
TTITLE17=
EXTD=
EXTT0=
EXTT1=
EXTT2=
EXTT3=
EXTT4=
EXTT5=
EXTT6=
EXTT7=
EXTT8=
EXTT9=
EXTT10=
EXTT11=
EXTT12=
EXTT13=
EXTT14=
EXTT15=
EXTT16=
EXTT17=
PLAYORDER=
